<?xml version="1.0" encoding="UTF-8"?> <!-- Generator: Adobe Illustrator 26.0.3, SVG Export Plug-In . SVG Version: 6.00 Build 0) --> <svg xmlns="http://www.w3.org/2000/svg" xmlns:xlink="http://www.w3.org/1999/xlink" version="1.1" id="Layer_1" x="0px" y="0px" viewBox="0 0 708.7 121.5" style="enable-background:new 0 0 708.7 121.5;" xml:space="preserve"> <style type="text/css"> .st0{fill-rule:evenodd;clip-rule:evenodd;fill:#009946;} </style> <g> <path class="st0" d="M50.1,32.9c-2.5,0-4.6,5-4.6,11.1v53.7c0,6.1,2,11.1,4.6,11.1c2.5,0,4.6-5,4.6-11.1V44 C54.7,37.9,52.6,32.9,50.1,32.9z M43,121.5H2.5c-1.4,0-2.5-1.1-2.5-2.5V2.5C0,1.1,1.1,0,2.5,0H43c1.4,0,2.5,1.1,2.5,2.5v18.6 c1.6-0.5,3.3-0.8,5.1-0.8H86c8.4,0,15.2,6.8,15.2,15.2v70.8c0,8.4-6.8,15.2-15.2,15.2H43z"></path> <path class="st0" d="M162,32.9c-2.5,0-4.6,5-4.6,11.1v15.7c0,6.2,2,11.1,4.6,11.1c2.5,0,4.6-5,4.6-11.1V44 C166.5,37.9,164.5,32.9,162,32.9z M166.5,95.7c0-1.4,1.1-2.5,2.5-2.5h41c1.4,0,2.5,1.2,2.5,2.5v10.6c0,8.4-6.8,15.2-15.2,15.2 h-70.9c-8.4,0-15.2-6.8-15.2-15.2V35.4c0-8.4,6.8-15.2,15.2-15.2h70.9c8.4,0,15.2,6.8,15.2,15.2v46.3c0,1.4-1.1,2.5-2.5,2.5h-50 c-1.4,0-2.5,1.1-2.5,2.5v10.9c0,6.1,2,11.1,4.6,11.1c2.5,0,4.6-5,4.6-11.1L166.5,95.7z"></path> <path class="st0" d="M273.3,70.8c-2.5,0-4.5,5-4.5,11.2v15.7c0,6.1,2,11.1,4.5,11.1s4.6-5,4.6-11.1V82 C277.9,75.8,275.9,70.8,273.3,70.8z M268.8,46.1c0,1.4-1.1,2.5-2.5,2.5h-41c-1.4,0-2.5-1.2-2.5-2.5V35.5c0-8.4,6.8-15.2,15.2-15.2 h70.9c8.4,0,15.2,6.8,15.2,15.2v70.8c0,8.4-6.8,15.2-15.2,15.2H238c-8.4,0-15.2-6.8-15.2-15.2V60c0-1.4,1.1-2.5,2.5-2.5h50.1 c1.4,0,2.5-1.1,2.5-2.5V44.1c0-6.1-2-11.1-4.6-11.1c-2.5,0-4.6,5-4.6,11.1L268.8,46.1z"></path> <path class="st0" d="M546.7,32.9c-2.5,0-4.5,5-4.5,11.1v15.7c0,6.2,2,11.1,4.5,11.1s4.6-5,4.6-11.1V44 C551.2,37.9,549.2,32.9,546.7,32.9z M551.2,95.7c0-1.4,1.1-2.5,2.5-2.5h41c1.4,0,2.5,1.2,2.5,2.5v10.6c0,8.4-6.8,15.2-15.2,15.2 h-70.9c-8.4,0-15.2-6.8-15.2-15.2V35.4c0-8.4,6.8-15.2,15.2-15.2H582c8.4,0,15.2,6.8,15.2,15.2v46.3c0,1.4-1.1,2.5-2.5,2.5h-50.1 c-1.4,0-2.5,1.1-2.5,2.5v10.9c0,6.1,2,11.1,4.5,11.1s4.6-5,4.6-11.1V95.7z"></path> <g> <path class="st0" d="M428.7,121.5h-37.4c-1.4,0-2.5-1.1-2.5-2.5V44.1c0-6.1-2-11.1-4.5-11.1l0,0c-2.5,0-4.6,5-4.6,11.1V119 c0,1.4-1.1,2.5-2.5,2.5l0,0h-40.5c-1.4,0-2.5-1.1-2.5-2.5V35.4c0-8.4,6.8-15.2,15.2-15.2h121.5c8.4,0,15.2,6.8,15.2,15.2v83.5l0,0 c0,1.4-1.1,2.5-2.5,2.5H443h-0.1l0,0c-1.4,0-2.5-1.1-2.5-2.5l0,0V44c0-6.1-2-11.1-4.6-11.1l0,0c-2.5,0-4.5,5-4.5,11.1v74.9 C431.3,120.3,430.1,121.5,428.7,121.5z"></path> </g> <g> <path class="st0" d="M617.5,66.3h19.3c6.2,0,11.1,2,11.1,4.5l0,0c0,2.5-5,4.6-11.1,4.6h-19.3l0,0c-5.6,0-10.1,4.5-10.1,10.1v28.4 c0,4.2,3.4,7.6,7.6,7.6h28.4l0,0c5.6,0,10.1-4.5,10.1-10.1V92.1c0-6.2,2-11.1,4.6-11.1l0,0c2.5,0,4.6,5,4.6,11.1v19.3l0,0 c0,5.6,4.5,10.1,10.1,10.1h28.4c4.2,0,7.6-3.4,7.6-7.6V85.5l0,0c0-5.6-4.5-10.1-10.1-10.1h-19.3c-6.1,0-11.1-2-11.1-4.6l0,0 c0-2.5,5-4.5,11.1-4.5h19.3l0,0c5.6,0,10.1-4.5,10.1-10.1V27.8c0-4.2-3.4-7.6-7.6-7.6h-28.4l0,0c-5.6,0-10.1,4.5-10.1,10.1v19.3 c0,6.2-2,11.2-4.6,11.2l0,0c-2.5,0-4.6-5-4.6-11.2V30.4l0,0c0-5.6-4.5-10.1-10.1-10.1H615c-4.2,0-7.6,3.4-7.6,7.6v28.4l0,0 C607.4,61.8,612,66.3,617.5,66.3z"></path> </g> </g> </svg> 